<?xml version="1.0" standalone="no"?>
<!DOCTYPE svg PUBLIC "-//W3C//DTD SVG 20010904//EN"
 "http://www.w3.org/TR/2001/REC-SVG-20010904/DTD/svg10.dtd">
<svg version="1.0" xmlns="http://www.w3.org/2000/svg"
 width="512.000000pt" height="512.000000pt" viewBox="0 0 512.000000 512.000000"
 preserveAspectRatio="xMidYMid meet">
<metadata>
Created by potrace 1.14, written by Peter Selinger 2001-2017
</metadata>
<g transform="translate(0.000000,512.000000) scale(0.100000,-0.100000)"
fill="#000000" stroke="none">
<path d="M1947 5109 c-11 -6 -35 -30 -55 -52 -21 -23 -44 -48 -52 -57 -106
-110 -204 -237 -233 -300 -66 -147 -77 -212 -77 -469 0 -232 10 -282 70 -364
59 -81 165 -143 255 -149 36 -2 36 -3 31 -40 -3 -21 -12 -64 -20 -95 -8 -32
-18 -73 -21 -92 -3 -19 -8 -37 -10 -41 -2 -4 -6 -20 -9 -36 -3 -16 -26 -119
-51 -229 -85 -376 -87 -387 -82 -447 7 -75 49 -151 110 -200 172 -135 426 -36
471 185 4 15 8 39 11 55 3 15 10 41 15 57 7 27 39 166 46 204 2 8 11 47 20 85
l18 71 18 -80 c22 -97 18 -78 68 -282 45 -179 54 -202 96 -253 161 -190 475
-98 512 151 6 43 3 75 -16 154 -13 55 -25 107 -27 115 -2 8 -25 99 -52 202
-26 102 -46 189 -43 191 3 3 24 7 47 11 92 12 176 72 219 157 23 47 24 48 55
37 18 -6 58 -8 96 -5 105 10 189 72 235 172 21 48 22 61 23 355 1 352 -3 393
-53 523 -15 39 -42 86 -59 105 -31 33 -36 34 -82 29 -48 -6 -50 -5 -85 36 -19
23 -53 62 -75 86 -39 42 -40 44 -26 72 38 73 -12 149 -97 149 -24 0 -88 -61
-88 -84 0 -14 -47 -16 -480 -16 -450 0 -480 1 -480 18 -1 56 -92 101 -143 71z"/>
<path d="M3436 2551 c-60 -19 -137 -86 -166 -146 -20 -40 -24 -43 -58 -42 -93
3 -175 -34 -236 -104 -48 -56 -69 -124 -64 -204 l4 -64 -38 -17 c-78 -35 -146
-139 -152 -232 -4 -63 18 -145 50 -188 26 -34 26 -35 8 -49 -10 -8 -22 -15
-26 -15 -4 0 -26 -23 -48 -51 -45 -57 -62 -109 -62 -191 0 -101 24 -135 292
-408 445 -453 625 -631 671 -666 51 -37 167 -97 214 -109 17 -5 35 -9 40 -11
70 -20 352 -46 523 -48 69 -1 75 1 98 27 13 15 24 37 24 48 0 18 9 19 255 19
l255 0 0 669 0 669 29 7 c39 8 59 32 66 80 11 68 -25 111 -473 561 -161 163
-218 196 -340 196 -91 1 -174 -27 -236 -79 l-29 -24 -171 169 c-94 93 -184
176 -201 185 -68 34 -156 41 -229 18z"/>
<path d="M1049 2367 c-48 -18 -84 -49 -303 -266 -299 -296 -348 -358 -396
-500 -29 -86 -37 -137 -45 -266 -14 -230 5 -189 -150 -344 -75 -75 -140 -143
-146 -151 -27 -44 21 -140 70 -140 21 0 21 -2 21 -300 l0 -300 422 -2 c414 -3
423 -3 426 -23 10 -52 86 -89 133 -65 13 7 58 45 99 86 l75 74 85 5 c255 14
276 17 380 51 49 16 159 74 200 105 57 44 404 397 425 434 73 125 64 289 -21
401 l-35 45 32 37 c51 57 73 117 73 197 1 118 -57 209 -166 261 -36 17 -37 18
-37 74 1 124 -97 249 -218 274 -40 9 -104 10 -129 2 -15 -5 -25 4 -47 43 -25
45 -70 88 -122 117 -52 29 -150 37 -209 17 -50 -17 -54 -17 -61 6 -10 31 -81
97 -131 121 -65 30 -154 33 -225 7z"/>
</g>
</svg>
